<svg xmlns="http://www.w3.org/2000/svg" viewBox="0 0 399.5 126.7"><path d="M178.5 38c0-.6.1-1.6.3-3.3.2-1.7 1.3-6.7 5.7-9.5-.2 0-.5-.1-.7-.1-.6 0-2.4-.1-4.9.8 1-1.5 4.7-4 6.1-4.7.1-.1.3-.2.4-.2-1.6-5.1-5-9.3-9.8-11.8-3-1.6-6.1-2.4-10.3-2.5h-8.4c-6.7 0-9.8-.1-12.2-.6-2-.5-3.8-1.6-3.8-1.6l-.5-.3.1.6c0 .2.5 4.7 5.9 8.7 1 .8 1.8 1.5 1.8 4.1v24.2c0 2.6-.5 3.3-1.7 4-1.3.8-4 2.3-4 2.4l-.9.5h21.9c6.1 0 10-1 14.1-3.8.8-.5 1.5-1.1 2.1-1.6-.4-3.1.1-5.9.5-7.5 0-.1-1.1.9-1.7 2.2zm-14 .5h-4.7V16.9h4.7c6.2 0 9.7 3.9 9.7 10.8s-3.5 10.8-9.7 10.8zm60.7 5.4c.4-.8.6-1.8.6-2.8 0-1-.3-2-.7-2.8l1.2.2c.8.1 2.3 1.1 2.3 2.6 0 1.8-1.8 2.6-3.4 2.8zm23.2 1c-4.2 2.8-8 3.8-14.1 3.8h-.2c1-1.2 1.5-2.8 1.5-4.4 0-2.3-1.1-4.4-2.9-5.8h2.6c6.2 0 9.7-3.9 9.7-10.8s-3.5-10.8-9.7-10.8h-4.7v2.7c-.7-.1-1.3-.2-2-.2-1.1 0-2.4.2-2.7.4 1.3-1.1 2.8-1.6 3.8-1.8-4.4-1-8.5 1.5-9.1 2.2.5-1.1 1.5-2.1 2.2-2.8-1.4.5-2.7 1.2-3.8 1.9v-1.8c0-2.7-.7-3.4-1.8-4.1-5.4-3.9-5.9-8.5-5.9-8.7l-.1-.6.5.3s1.8 1.2 3.8 1.6c2.3.5 5.5.6 12.2.6h8.4c4.2.2 7.3.9 10.3 2.5 6.8 3.5 10.8 10.4 10.8 18.4 0 4.9-1.6 9.7-4.4 13.1-1.1 1.7-2.6 3.1-4.4 4.3zm-21.2-8.3c-1.5 0-3.1.3-3.1.3-.3-.3-2.3-1.8-3.2-2 1.6 1.7 1.1 3.5.7 4.1-.3.5-.9.8-1.4.8-.4 0-.8-.1-1.2-.4v-9.8c.4-.5.8-1.1 1.3-1.6 1.1-1.3 2.9-2.1 4.7-2.1 1.1 0 2.2.3 2.9.9l.6.4.5-.5c.3-.3 1-.6 1.7-.9v11.5c-1.1-.5-2.2-.7-3.5-.7zm-2-13.6c-3.7-.5-9.4 2-12.3 5.6.6-2.4 3.2-6.3 6.4-8.1 0 0-1.6 2-.9 2.3 1 .5 3.6-3.6 7-3.7 0 0-2.5 1.2-2 2.1.4.6 2.1-.8 5-.8 3.6 0 6.8 2.2 8.3 3.9-2.5-.7-7.2.5-8.6 1.7-2.1-1.6-6.2-1.4-8.5 1.3-2.9 3.3-4.7 7.2-5.2 8.4-1-.8-1.9-1.5-2.5-2-.5-.4-1-.6-1.5-.8 2.7-3.8 8.3-9.6 14.8-9.9zm-39-11.2c-.4-4.7 1.8-7.3 2.8-8.4 2.2-2.3 5.2-3.6 9.7-3.4 7 .4 10.4 5.2 10.4 10.3 0 2.7-1.4 6.3-3.4 8.6l-.4-.4c-1.3-1.2-3.2-2.7-4.4-4.5 2.4-3.5 1.4-9-2.9-9-2.7 0-4.9 2.8-4 6.2-.4 1.5-.6 3.5-.3 5-3.1-1.6-4.1-3.7-4.7-5.6-.8 1.6-1.3 3.8-.7 5.9 0 .2-1.8-1.4-2.1-4.7zm1.8 8.5c-.3 1.1-4.4 2.3-6.4 4.3 3-.6 4.4-.1 4.9 1.1.3.9-.1 2.1-.3 3.5 1-1.1 4.4-3.4 6.9-3.9-.6-.2-2.1-.5-2.7-.5 1.8-2.1 5.8-2.8 8-2.3-1.4-.1-4.2.7-5.3 1.6 1 .2 1.9.4 2.7.7-1.3.5-3 2.1-3.6 3.8 1.7-1.2 5.2-.9 5.8 1.6.4 1.7-.8 3.2-1.4 3.5.5.1 1.7 0 2.2-.3-.2.7-1.2 1.9-1.9 2.1 1.8 0 4.4-1.2 5.1-2.9 0 0-1.1.4-1.6-.1s.2-2.7.2-2.7-.7.9-1.3.4c-.6-.6.2-2.6.5-3-.6-.2-2.2-.4-2.9-.3 2-.7 6.5-1.1 7-.2.4.7-.6 2.1-.6 2.1.8-.1 3.1 0 3.9.9.8 1 .3 2.3.3 2.3 1.8-.9 3.4-3.7 3-6.5-.2.6-1 1.5-1.8 1.7.1-.9-.6-1.4-1.2-1.6.3-1.7-.4-3.9-2.9-6.3-2.1-2.1-6.1-4.9-5.9-8.6-.6.8-1.1 3.1-.5 4.4 1.7 2 5.4 4.2 6.3 7.6-1.6-4-9.4-7.1-9.1-12.6-1 1-1.6 4.9-.8 6.9 1.5.9 2.8 2.4 3 3.8-1.4-3.2-7.1-3.8-8.7-7.6-.4 1.4-.2 3.1.6 4.2 0 0-1.4-.5-4.4-.4 1 .4 3.1 2.2 2.9 3.3zm16.2 4.6c-1.7 0-2.2-1.3-2.6-2.7 2 .8 2.6 2.7 2.6 2.7zM226 51c1.2 1.1 4.1 1.9 5.6 1.2-.9 1.6-5.1 3.8-9 2.8-3.7-1-5.4-4.5-5.4-6.8-1.8 1.8-1.3 4.6 0 5.8-1.4-.4-3.6-1.9-4-4.6-.3-2.3 1-5-1.4-7.1-1.4-1.3-3.7-3.1-5.1-4.2-3-2.3-1.9-4.1-2.5-5.3-.5-1-1.8-1.5-2.5-2.4-.8-.9-.7-2.2-.3-2.9-.1 1 .6 1.8 1.6 2.2 1.1.4 2 .1 3 .6 1.1.7.6 2.4 1.4 3.1.7.5 2.6-.2 4.1 1.1 1.6 1.3 5.1 4.2 6.6 5.4 2.7 2.2 5.5-.3 4.6-2.9 2.8 1.6 3.1 6.2.8 7.8 2.2.5 6.1-.5 6.1-3.6 0-1.9-1.8-3.3-3-3.5 4.5-.4 8.4 2.7 8.4 6.7-.2 4-4.3 7.2-9 6.6zm-14.9-8.2l.3.3c-2.4 4.9-6.9 11.2-15.5 11.2-3.1 0-5.9-1.1-7.9-2.6-.7-.5-1.3-1.1-1.8-1.8-.3-.4-.6-.7-.9-1.1-.4-.5-.7-.5-.9-.2-.4.6.3 2.5.3 2.5-6.8-6.4-3.3-15.8-3.2-16.2.4-1.2 0-1.4-.4-1.2-.6.2-1.3 1.2-1.3 1.2.5-5.7 5.8-9.2 5.8-9.2l.1.1c.6.9-.3 2-.4 5.6 1-1.4 4.9-4.1 7.1-4.9-.7.9-1.3 2.2-1.3 4.1 0 0 1.6-1.8 3.6-1.8.5 0 1 .1 1.4.3-7.6 7.4-4.4 16.6 2 16.6 3.6 0 7.2-4 8.7-6.7 1.1 1.1 3 2.7 4.3 3.8z" fill="#e40712"/><path d="M221.3 64.7c-17.7 0-35.5 12.1-35.5 31.4 0 20 17.7 30.6 35.3 30.6 17.8 0 35.6-10.5 35.6-30.6 0-19.8-17.7-31.4-35.4-31.4zm-.2 48.4c-7.8 0-17.4-5.9-17.4-17 0-11.4 9-17.5 17.5-17.5 7.8 0 17.7 5.4 17.7 17.7 0 11.7-9.9 16.8-17.8 16.8zm81.6-46.5h24.5l-4.6 5.2V125h-13.3c-2.5-7.9-28-28.1-30.3-34.7h-.2v29.6l4.6 5.1h-24.3l4.5-5.2v-48l-4.6-5.3h19.7c1.8 5.9 24.8 22.8 28.2 31.8h.2V71.8l-4.4-5.2zm59.1-1.3c-12.9 0-25 .8-31.4 1.3l4.6 5.1v48.2l-4.6 5.1c6.5.5 19.3 1.3 32.2 1.3 26.3 0 36.9-12.9 36.9-30.5 0-18.3-14.5-30.5-37.7-30.5zm.6 47.7c-4 0-7.6-.2-10-.5V79.2c2.7-.3 4.8-.6 9.2-.6 11.3 0 20 4.8 20 17 0 11.7-7.9 17.4-19.2 17.4zm-198.2 6.8l4.5 5.1h-26.6l4.8-5.1-.1-12.1-27.5-41.1h28l-4 4.5 13.1 23.2h.2l12.8-23.2-3.8-4.5h26l-27.5 41.3zm-39.4-8.1l-8.8 13.2h.1-50.8l4.6-5.1V71.7l-4.6-5.1 45.9-.1v.1l8.8 13.1H87.3V89h23.2l-8.8 13.2v.1l-14.4-.1v9.6zm-66-12.4c-2.2-2.1-5.1-3.7-8.9-4.8 1.5-.4 2.9-1 4.2-1.8 1.3-.8 2.3-1.6 3.2-2.6.9-1 1.6-2 2-3.1.5-1 .7-2 .7-3v-1.9c0-2.3-.5-4.5-1.6-6.4-1.1-1.9-2.6-3.6-4.6-4.9-2-1.4-4.8-2.4-7.6-3.2-2.8-.7-5.9-1.1-9.3-1.1h-35l5.2 5.4v18.4H0l7.1 9.1v20.1l-5.2 5.4h36.8c6.9 0 12.9-1.2 17.1-3.7 4.2-2.5 6.2-6.1 6.2-11v-3.3c0-3-1.1-5.5-3.2-7.6zm-34.7-22h9.4c2.7 0 4.9.4 6.6 1.2 1.7.8 2.5 2.3 2.5 4.5v1.9c0 1.7-.6 3-1.9 4-1.3 1-3 1.5-5.2 1.5H24.1V77.3zm20.5 31.2c0 1.2-.2 2.2-.7 2.9-.5.7-1.1 1.3-1.9 1.8-.8.4-1.7.7-2.8.9-1.1.1-2.2.2-3.3.2H24.1v-14.1H36c2.2 0 4.1.5 5.9 1.5 1.7 1 2.6 2.3 2.6 4v2.8z" fill="#fff"/></svg>